<mxfile host="app.diagrams.net" modified="2024-04-04T06:26:47.774Z" agent="Mozilla/5.0 (Macintosh; Intel Mac OS X 10_15_7) AppleWebKit/537.36 (KHTML, like Gecko) Chrome/122.0.0.0 Safari/537.36" etag="OacF5xCmnZhO0B-VDwV3" version="24.2.2" type="github">
  <diagram name="第 1 页" id="iETWQEZDQmNM6iryeSqC">
    <mxGraphModel dx="2738" dy="1208" grid="1" gridSize="10" guides="1" tooltips="1" connect="1" arrows="1" fold="1" page="1" pageScale="1" pageWidth="827" pageHeight="1169" math="0" shadow="0">
      <root>
        <mxCell id="0" />
        <mxCell id="1" parent="0" />
        <mxCell id="LccmeJerp7SuD0C8KK6X-52" style="edgeStyle=orthogonalEdgeStyle;rounded=0;orthogonalLoop=1;jettySize=auto;html=1;" parent="1" source="LccmeJerp7SuD0C8KK6X-1" edge="1">
          <mxGeometry relative="1" as="geometry">
            <mxPoint x="665" y="230" as="targetPoint" />
            <Array as="points">
              <mxPoint x="665" y="190" />
              <mxPoint x="665" y="190" />
            </Array>
          </mxGeometry>
        </mxCell>
        <mxCell id="LccmeJerp7SuD0C8KK6X-60" style="edgeStyle=orthogonalEdgeStyle;rounded=0;orthogonalLoop=1;jettySize=auto;html=1;entryX=0.5;entryY=0;entryDx=0;entryDy=0;" parent="1" source="LccmeJerp7SuD0C8KK6X-1" target="LccmeJerp7SuD0C8KK6X-4" edge="1">
          <mxGeometry relative="1" as="geometry">
            <Array as="points">
              <mxPoint x="1210" y="190" />
              <mxPoint x="1210" y="190" />
            </Array>
          </mxGeometry>
        </mxCell>
        <mxCell id="LccmeJerp7SuD0C8KK6X-62" style="edgeStyle=orthogonalEdgeStyle;rounded=0;orthogonalLoop=1;jettySize=auto;html=1;entryX=0.5;entryY=0;entryDx=0;entryDy=0;" parent="1" source="LccmeJerp7SuD0C8KK6X-1" target="LccmeJerp7SuD0C8KK6X-61" edge="1">
          <mxGeometry relative="1" as="geometry">
            <Array as="points">
              <mxPoint x="1420" y="190" />
              <mxPoint x="1420" y="190" />
            </Array>
          </mxGeometry>
        </mxCell>
        <mxCell id="LccmeJerp7SuD0C8KK6X-1" value="apiserver" style="rounded=1;whiteSpace=wrap;html=1;" parent="1" vertex="1">
          <mxGeometry x="10" y="130" width="1500" height="40" as="geometry" />
        </mxCell>
        <mxCell id="LccmeJerp7SuD0C8KK6X-51" style="edgeStyle=orthogonalEdgeStyle;rounded=0;orthogonalLoop=1;jettySize=auto;html=1;entryX=0.5;entryY=0;entryDx=0;entryDy=0;" parent="1" source="LccmeJerp7SuD0C8KK6X-2" target="LccmeJerp7SuD0C8KK6X-1" edge="1">
          <mxGeometry relative="1" as="geometry" />
        </mxCell>
        <mxCell id="LccmeJerp7SuD0C8KK6X-2" value="apisix" style="rounded=1;whiteSpace=wrap;html=1;" parent="1" vertex="1">
          <mxGeometry x="10" y="30" width="1500" height="40" as="geometry" />
        </mxCell>
        <mxCell id="LccmeJerp7SuD0C8KK6X-19" style="edgeStyle=orthogonalEdgeStyle;rounded=0;orthogonalLoop=1;jettySize=auto;html=1;entryX=0.5;entryY=0;entryDx=0;entryDy=0;exitX=0.073;exitY=1;exitDx=0;exitDy=0;exitPerimeter=0;" parent="1" source="LccmeJerp7SuD0C8KK6X-3" target="LccmeJerp7SuD0C8KK6X-5" edge="1">
          <mxGeometry relative="1" as="geometry">
            <Array as="points">
              <mxPoint x="90" y="280" />
            </Array>
          </mxGeometry>
        </mxCell>
        <mxCell id="LccmeJerp7SuD0C8KK6X-20" style="edgeStyle=orthogonalEdgeStyle;rounded=0;orthogonalLoop=1;jettySize=auto;html=1;entryX=0.5;entryY=0;entryDx=0;entryDy=0;" parent="1" source="LccmeJerp7SuD0C8KK6X-3" target="LccmeJerp7SuD0C8KK6X-6" edge="1">
          <mxGeometry relative="1" as="geometry">
            <Array as="points">
              <mxPoint x="340" y="400" />
              <mxPoint x="340" y="400" />
            </Array>
          </mxGeometry>
        </mxCell>
        <mxCell id="LccmeJerp7SuD0C8KK6X-25" style="edgeStyle=orthogonalEdgeStyle;rounded=0;orthogonalLoop=1;jettySize=auto;html=1;entryX=0.5;entryY=0;entryDx=0;entryDy=0;" parent="1" target="LccmeJerp7SuD0C8KK6X-23" edge="1">
          <mxGeometry relative="1" as="geometry">
            <mxPoint x="930" y="280" as="sourcePoint" />
            <Array as="points">
              <mxPoint x="930" y="320" />
              <mxPoint x="930" y="320" />
            </Array>
          </mxGeometry>
        </mxCell>
        <mxCell id="LccmeJerp7SuD0C8KK6X-31" style="edgeStyle=orthogonalEdgeStyle;rounded=0;orthogonalLoop=1;jettySize=auto;html=1;entryX=0.5;entryY=0;entryDx=0;entryDy=0;" parent="1" source="LccmeJerp7SuD0C8KK6X-3" target="LccmeJerp7SuD0C8KK6X-30" edge="1">
          <mxGeometry relative="1" as="geometry">
            <Array as="points">
              <mxPoint x="210" y="310" />
              <mxPoint x="210" y="310" />
            </Array>
          </mxGeometry>
        </mxCell>
        <mxCell id="LccmeJerp7SuD0C8KK6X-48" style="edgeStyle=orthogonalEdgeStyle;rounded=0;orthogonalLoop=1;jettySize=auto;html=1;entryX=0.5;entryY=0;entryDx=0;entryDy=0;" parent="1" source="LccmeJerp7SuD0C8KK6X-3" target="LccmeJerp7SuD0C8KK6X-8" edge="1">
          <mxGeometry relative="1" as="geometry">
            <Array as="points">
              <mxPoint x="680" y="340" />
              <mxPoint x="680" y="340" />
            </Array>
          </mxGeometry>
        </mxCell>
        <mxCell id="LccmeJerp7SuD0C8KK6X-49" style="edgeStyle=orthogonalEdgeStyle;rounded=0;orthogonalLoop=1;jettySize=auto;html=1;entryX=0.5;entryY=0;entryDx=0;entryDy=0;" parent="1" target="LccmeJerp7SuD0C8KK6X-7" edge="1">
          <mxGeometry relative="1" as="geometry">
            <mxPoint x="550" y="280" as="sourcePoint" />
          </mxGeometry>
        </mxCell>
        <mxCell id="LccmeJerp7SuD0C8KK6X-3" value="cc-talk" style="rounded=1;whiteSpace=wrap;html=1;" parent="1" vertex="1">
          <mxGeometry x="10" y="240" width="1030" height="40" as="geometry" />
        </mxCell>
        <mxCell id="LccmeJerp7SuD0C8KK6X-4" value="upload" style="rounded=1;whiteSpace=wrap;html=1;" parent="1" vertex="1">
          <mxGeometry x="1100" y="240" width="220" height="40" as="geometry" />
        </mxCell>
        <mxCell id="LccmeJerp7SuD0C8KK6X-54" style="edgeStyle=orthogonalEdgeStyle;rounded=0;orthogonalLoop=1;jettySize=auto;html=1;entryX=0.5;entryY=0;entryDx=0;entryDy=0;" parent="1" source="LccmeJerp7SuD0C8KK6X-5" target="LccmeJerp7SuD0C8KK6X-53" edge="1">
          <mxGeometry relative="1" as="geometry" />
        </mxCell>
        <mxCell id="LccmeJerp7SuD0C8KK6X-5" value="prejudge" style="rounded=1;whiteSpace=wrap;html=1;" parent="1" vertex="1">
          <mxGeometry x="40" y="320" width="100" height="40" as="geometry" />
        </mxCell>
        <mxCell id="LccmeJerp7SuD0C8KK6X-59" style="edgeStyle=orthogonalEdgeStyle;rounded=0;orthogonalLoop=1;jettySize=auto;html=1;entryX=0.5;entryY=0;entryDx=0;entryDy=0;" parent="1" source="LccmeJerp7SuD0C8KK6X-6" target="LccmeJerp7SuD0C8KK6X-17" edge="1">
          <mxGeometry relative="1" as="geometry">
            <Array as="points">
              <mxPoint x="360" y="640" />
              <mxPoint x="520" y="640" />
            </Array>
          </mxGeometry>
        </mxCell>
        <mxCell id="LccmeJerp7SuD0C8KK6X-6" value="dm-gate(parse)" style="rounded=1;whiteSpace=wrap;html=1;fillColor=#dae8fc;strokeColor=#6c8ebf;shadow=1;glass=0;" parent="1" vertex="1">
          <mxGeometry x="290" y="430" width="100" height="40" as="geometry" />
        </mxCell>
        <mxCell id="LccmeJerp7SuD0C8KK6X-55" style="edgeStyle=orthogonalEdgeStyle;rounded=0;orthogonalLoop=1;jettySize=auto;html=1;entryX=0.5;entryY=1;entryDx=0;entryDy=0;" parent="1" source="LccmeJerp7SuD0C8KK6X-7" target="LccmeJerp7SuD0C8KK6X-53" edge="1">
          <mxGeometry relative="1" as="geometry">
            <Array as="points">
              <mxPoint x="550" y="540" />
              <mxPoint x="-160" y="540" />
            </Array>
          </mxGeometry>
        </mxCell>
        <mxCell id="LccmeJerp7SuD0C8KK6X-7" value="arbitration" style="rounded=1;whiteSpace=wrap;html=1;" parent="1" vertex="1">
          <mxGeometry x="500" y="480" width="100" height="40" as="geometry" />
        </mxCell>
        <mxCell id="LccmeJerp7SuD0C8KK6X-46" style="edgeStyle=orthogonalEdgeStyle;rounded=0;orthogonalLoop=1;jettySize=auto;html=1;entryX=0.25;entryY=0;entryDx=0;entryDy=0;" parent="1" source="LccmeJerp7SuD0C8KK6X-8" target="LccmeJerp7SuD0C8KK6X-44" edge="1">
          <mxGeometry relative="1" as="geometry">
            <Array as="points">
              <mxPoint x="640" y="770" />
              <mxPoint x="640" y="770" />
            </Array>
          </mxGeometry>
        </mxCell>
        <mxCell id="LccmeJerp7SuD0C8KK6X-8" value="dst" style="rounded=1;whiteSpace=wrap;html=1;" parent="1" vertex="1">
          <mxGeometry x="630" y="545" width="100" height="40" as="geometry" />
        </mxCell>
        <mxCell id="LccmeJerp7SuD0C8KK6X-32" style="edgeStyle=orthogonalEdgeStyle;rounded=0;orthogonalLoop=1;jettySize=auto;html=1;entryX=0.25;entryY=0;entryDx=0;entryDy=0;" parent="1" source="LccmeJerp7SuD0C8KK6X-9" target="LccmeJerp7SuD0C8KK6X-28" edge="1">
          <mxGeometry relative="1" as="geometry">
            <Array as="points">
              <mxPoint x="40" y="810" />
              <mxPoint x="40" y="810" />
            </Array>
          </mxGeometry>
        </mxCell>
        <mxCell id="LccmeJerp7SuD0C8KK6X-33" style="edgeStyle=orthogonalEdgeStyle;rounded=0;orthogonalLoop=1;jettySize=auto;html=1;entryX=0.5;entryY=0;entryDx=0;entryDy=0;" parent="1" source="LccmeJerp7SuD0C8KK6X-9" target="LccmeJerp7SuD0C8KK6X-28" edge="1">
          <mxGeometry relative="1" as="geometry">
            <Array as="points">
              <mxPoint x="80" y="820" />
              <mxPoint x="80" y="820" />
            </Array>
          </mxGeometry>
        </mxCell>
        <mxCell id="LccmeJerp7SuD0C8KK6X-34" style="edgeStyle=orthogonalEdgeStyle;rounded=0;orthogonalLoop=1;jettySize=auto;html=1;entryX=0.75;entryY=0;entryDx=0;entryDy=0;" parent="1" source="LccmeJerp7SuD0C8KK6X-9" target="LccmeJerp7SuD0C8KK6X-28" edge="1">
          <mxGeometry relative="1" as="geometry">
            <Array as="points">
              <mxPoint x="120" y="810" />
              <mxPoint x="120" y="810" />
            </Array>
          </mxGeometry>
        </mxCell>
        <mxCell id="LccmeJerp7SuD0C8KK6X-36" style="edgeStyle=orthogonalEdgeStyle;rounded=0;orthogonalLoop=1;jettySize=auto;html=1;entryX=0.5;entryY=0;entryDx=0;entryDy=0;" parent="1" source="LccmeJerp7SuD0C8KK6X-9" target="LccmeJerp7SuD0C8KK6X-29" edge="1">
          <mxGeometry relative="1" as="geometry">
            <Array as="points">
              <mxPoint x="310" y="810" />
              <mxPoint x="310" y="810" />
            </Array>
          </mxGeometry>
        </mxCell>
        <mxCell id="LccmeJerp7SuD0C8KK6X-37" style="edgeStyle=orthogonalEdgeStyle;rounded=0;orthogonalLoop=1;jettySize=auto;html=1;entryX=0.75;entryY=0;entryDx=0;entryDy=0;" parent="1" source="LccmeJerp7SuD0C8KK6X-9" target="LccmeJerp7SuD0C8KK6X-29" edge="1">
          <mxGeometry relative="1" as="geometry">
            <Array as="points">
              <mxPoint x="350" y="820" />
              <mxPoint x="350" y="820" />
            </Array>
          </mxGeometry>
        </mxCell>
        <mxCell id="LccmeJerp7SuD0C8KK6X-39" style="edgeStyle=orthogonalEdgeStyle;rounded=0;orthogonalLoop=1;jettySize=auto;html=1;entryX=0.5;entryY=1;entryDx=0;entryDy=0;" parent="1" source="LccmeJerp7SuD0C8KK6X-9" target="LccmeJerp7SuD0C8KK6X-30" edge="1">
          <mxGeometry relative="1" as="geometry">
            <Array as="points">
              <mxPoint x="-40" y="750" />
              <mxPoint x="-40" y="390" />
              <mxPoint x="210" y="390" />
            </Array>
          </mxGeometry>
        </mxCell>
        <mxCell id="LccmeJerp7SuD0C8KK6X-9" value="nlu" style="rounded=1;whiteSpace=wrap;html=1;" parent="1" vertex="1">
          <mxGeometry y="730" width="390" height="40" as="geometry" />
        </mxCell>
        <mxCell id="LccmeJerp7SuD0C8KK6X-10" style="edgeStyle=orthogonalEdgeStyle;rounded=0;orthogonalLoop=1;jettySize=auto;html=1;entryX=0.444;entryY=0.05;entryDx=0;entryDy=0;entryPerimeter=0;" parent="1" edge="1">
          <mxGeometry relative="1" as="geometry">
            <mxPoint x="312.92" y="468" as="sourcePoint" />
            <mxPoint x="146.07999999999987" y="730" as="targetPoint" />
            <Array as="points">
              <mxPoint x="312.92" y="638" />
              <mxPoint x="145.92000000000002" y="638" />
            </Array>
          </mxGeometry>
        </mxCell>
        <mxCell id="LccmeJerp7SuD0C8KK6X-15" style="edgeStyle=orthogonalEdgeStyle;rounded=0;orthogonalLoop=1;jettySize=auto;html=1;entryX=0.172;entryY=-0.05;entryDx=0;entryDy=0;entryPerimeter=0;" parent="1" edge="1">
          <mxGeometry relative="1" as="geometry">
            <mxPoint x="312.92" y="468" as="sourcePoint" />
            <mxPoint x="39.99999999999993" y="725.9999999999998" as="targetPoint" />
            <Array as="points">
              <mxPoint x="312.92" y="638" />
              <mxPoint x="39.92" y="638" />
            </Array>
          </mxGeometry>
        </mxCell>
        <mxCell id="LccmeJerp7SuD0C8KK6X-16" style="edgeStyle=orthogonalEdgeStyle;rounded=0;orthogonalLoop=1;jettySize=auto;html=1;entryX=0.708;entryY=-0.075;entryDx=0;entryDy=0;entryPerimeter=0;" parent="1" edge="1">
          <mxGeometry relative="1" as="geometry">
            <mxPoint x="312.92" y="468" as="sourcePoint" />
            <mxPoint x="249.0399999999999" y="725" as="targetPoint" />
            <Array as="points">
              <mxPoint x="312.92" y="638" />
              <mxPoint x="248.92000000000002" y="638" />
            </Array>
          </mxGeometry>
        </mxCell>
        <mxCell id="LccmeJerp7SuD0C8KK6X-40" style="edgeStyle=orthogonalEdgeStyle;rounded=0;orthogonalLoop=1;jettySize=auto;html=1;entryX=0.5;entryY=1;entryDx=0;entryDy=0;" parent="1" source="LccmeJerp7SuD0C8KK6X-17" target="LccmeJerp7SuD0C8KK6X-8" edge="1">
          <mxGeometry relative="1" as="geometry" />
        </mxCell>
        <mxCell id="LccmeJerp7SuD0C8KK6X-17" value="dm" style="rounded=1;whiteSpace=wrap;html=1;" parent="1" vertex="1">
          <mxGeometry x="420" y="730" width="200" height="40" as="geometry" />
        </mxCell>
        <mxCell id="LccmeJerp7SuD0C8KK6X-27" style="edgeStyle=orthogonalEdgeStyle;rounded=0;orthogonalLoop=1;jettySize=auto;html=1;" parent="1" source="LccmeJerp7SuD0C8KK6X-23" target="LccmeJerp7SuD0C8KK6X-26" edge="1">
          <mxGeometry relative="1" as="geometry" />
        </mxCell>
        <mxCell id="LccmeJerp7SuD0C8KK6X-23" value="dm-gate(skill)" style="rounded=1;whiteSpace=wrap;html=1;shadow=1;fillColor=#dae8fc;strokeColor=#6c8ebf;" parent="1" vertex="1">
          <mxGeometry x="880" y="470" width="100" height="40" as="geometry" />
        </mxCell>
        <mxCell id="LccmeJerp7SuD0C8KK6X-26" value="calculate" style="rounded=1;whiteSpace=wrap;html=1;" parent="1" vertex="1">
          <mxGeometry x="880" y="830" width="100" height="40" as="geometry" />
        </mxCell>
        <mxCell id="LccmeJerp7SuD0C8KK6X-28" value="model" style="rounded=1;whiteSpace=wrap;html=1;" parent="1" vertex="1">
          <mxGeometry y="940" width="160" height="40" as="geometry" />
        </mxCell>
        <mxCell id="LccmeJerp7SuD0C8KK6X-38" style="edgeStyle=orthogonalEdgeStyle;rounded=0;orthogonalLoop=1;jettySize=auto;html=1;entryX=0;entryY=0.5;entryDx=0;entryDy=0;" parent="1" source="LccmeJerp7SuD0C8KK6X-29" target="LccmeJerp7SuD0C8KK6X-30" edge="1">
          <mxGeometry relative="1" as="geometry">
            <Array as="points">
              <mxPoint x="310" y="1040" />
              <mxPoint x="-70" y="1040" />
              <mxPoint x="-70" y="390" />
            </Array>
          </mxGeometry>
        </mxCell>
        <mxCell id="LccmeJerp7SuD0C8KK6X-43" style="edgeStyle=orthogonalEdgeStyle;rounded=0;orthogonalLoop=1;jettySize=auto;html=1;entryX=0.5;entryY=0;entryDx=0;entryDy=0;" parent="1" source="LccmeJerp7SuD0C8KK6X-29" target="LccmeJerp7SuD0C8KK6X-41" edge="1">
          <mxGeometry relative="1" as="geometry" />
        </mxCell>
        <mxCell id="LccmeJerp7SuD0C8KK6X-29" value="rule" style="rounded=1;whiteSpace=wrap;html=1;" parent="1" vertex="1">
          <mxGeometry x="230" y="940" width="160" height="40" as="geometry" />
        </mxCell>
        <mxCell id="LccmeJerp7SuD0C8KK6X-30" value="tagging" style="rounded=1;whiteSpace=wrap;html=1;" parent="1" vertex="1">
          <mxGeometry x="160" y="370" width="100" height="40" as="geometry" />
        </mxCell>
        <mxCell id="LccmeJerp7SuD0C8KK6X-35" style="edgeStyle=orthogonalEdgeStyle;rounded=0;orthogonalLoop=1;jettySize=auto;html=1;entryX=0.3;entryY=-0.112;entryDx=0;entryDy=0;entryPerimeter=0;" parent="1" source="LccmeJerp7SuD0C8KK6X-9" target="LccmeJerp7SuD0C8KK6X-29" edge="1">
          <mxGeometry relative="1" as="geometry">
            <Array as="points">
              <mxPoint x="278" y="820" />
              <mxPoint x="278" y="820" />
            </Array>
          </mxGeometry>
        </mxCell>
        <mxCell id="LccmeJerp7SuD0C8KK6X-41" value="mongo" style="rounded=1;whiteSpace=wrap;html=1;" parent="1" vertex="1">
          <mxGeometry x="380" y="1230" width="160" height="40" as="geometry" />
        </mxCell>
        <mxCell id="LccmeJerp7SuD0C8KK6X-44" value="redis" style="rounded=1;whiteSpace=wrap;html=1;" parent="1" vertex="1">
          <mxGeometry x="600" y="1230" width="160" height="40" as="geometry" />
        </mxCell>
        <mxCell id="LccmeJerp7SuD0C8KK6X-56" style="edgeStyle=orthogonalEdgeStyle;rounded=0;orthogonalLoop=1;jettySize=auto;html=1;entryX=0;entryY=0.5;entryDx=0;entryDy=0;" parent="1" source="LccmeJerp7SuD0C8KK6X-53" target="LccmeJerp7SuD0C8KK6X-41" edge="1">
          <mxGeometry relative="1" as="geometry">
            <Array as="points">
              <mxPoint x="-270" y="470" />
              <mxPoint x="-270" y="1250" />
            </Array>
          </mxGeometry>
        </mxCell>
        <mxCell id="LccmeJerp7SuD0C8KK6X-53" value="intervene" style="rounded=1;whiteSpace=wrap;html=1;fillColor=#e1d5e7;strokeColor=#9673a6;shadow=1;" parent="1" vertex="1">
          <mxGeometry x="-210" y="450" width="100" height="40" as="geometry" />
        </mxCell>
        <mxCell id="LccmeJerp7SuD0C8KK6X-57" style="edgeStyle=orthogonalEdgeStyle;rounded=0;orthogonalLoop=1;jettySize=auto;html=1;entryX=0.145;entryY=0.039;entryDx=0;entryDy=0;entryPerimeter=0;" parent="1" source="LccmeJerp7SuD0C8KK6X-6" target="LccmeJerp7SuD0C8KK6X-17" edge="1">
          <mxGeometry relative="1" as="geometry">
            <Array as="points">
              <mxPoint x="360" y="640" />
              <mxPoint x="449" y="640" />
            </Array>
          </mxGeometry>
        </mxCell>
        <mxCell id="LccmeJerp7SuD0C8KK6X-58" style="edgeStyle=orthogonalEdgeStyle;rounded=0;orthogonalLoop=1;jettySize=auto;html=1;entryX=0.359;entryY=0.004;entryDx=0;entryDy=0;entryPerimeter=0;" parent="1" source="LccmeJerp7SuD0C8KK6X-6" target="LccmeJerp7SuD0C8KK6X-17" edge="1">
          <mxGeometry relative="1" as="geometry">
            <Array as="points">
              <mxPoint x="360" y="640" />
              <mxPoint x="492" y="640" />
            </Array>
          </mxGeometry>
        </mxCell>
        <mxCell id="LccmeJerp7SuD0C8KK6X-61" value="asr" style="rounded=1;whiteSpace=wrap;html=1;" parent="1" vertex="1">
          <mxGeometry x="1340" y="240" width="160" height="40" as="geometry" />
        </mxCell>
        <mxCell id="g-gMrTrJFc-1XK-dAlaw-1" value="nebula-graph" style="rounded=1;whiteSpace=wrap;html=1;" vertex="1" parent="1">
          <mxGeometry x="1230" y="1230" width="100" height="40" as="geometry" />
        </mxCell>
        <mxCell id="g-gMrTrJFc-1XK-dAlaw-2" value="vector-db" style="rounded=1;whiteSpace=wrap;html=1;" vertex="1" parent="1">
          <mxGeometry x="1060" y="1230" width="100" height="40" as="geometry" />
        </mxCell>
        <mxCell id="g-gMrTrJFc-1XK-dAlaw-3" value="elasticsearch" style="rounded=1;whiteSpace=wrap;html=1;" vertex="1" parent="1">
          <mxGeometry x="890" y="1230" width="100" height="40" as="geometry" />
        </mxCell>
        <mxCell id="g-gMrTrJFc-1XK-dAlaw-4" value="&lt;ol&gt;&lt;li&gt;&lt;font style=&quot;font-size: 15px;&quot;&gt;query2query query改写&lt;/font&gt;&lt;/li&gt;&lt;li&gt;&lt;font style=&quot;font-size: 15px;&quot;&gt;query2instruct 指令改写&lt;/font&gt;&lt;/li&gt;&lt;li&gt;&lt;font style=&quot;font-size: 15px;&quot;&gt;query2domain domain改写&lt;/font&gt;&lt;/li&gt;&lt;/ol&gt;" style="text;html=1;align=left;verticalAlign=middle;resizable=0;points=[];autosize=1;strokeColor=#d79b00;fillColor=#ffe6cc;" vertex="1" parent="1">
          <mxGeometry x="-680" y="420" width="240" height="90" as="geometry" />
        </mxCell>
        <mxCell id="g-gMrTrJFc-1XK-dAlaw-5" style="edgeStyle=orthogonalEdgeStyle;rounded=0;orthogonalLoop=1;jettySize=auto;html=1;entryX=1.008;entryY=0.569;entryDx=0;entryDy=0;entryPerimeter=0;" edge="1" parent="1" source="LccmeJerp7SuD0C8KK6X-53" target="g-gMrTrJFc-1XK-dAlaw-4">
          <mxGeometry relative="1" as="geometry" />
        </mxCell>
      </root>
    </mxGraphModel>
  </diagram>
</mxfile>
